<svg xmlns:xodm="http://www.corel.com/coreldraw/odm/2003" xmlns="http://www.w3.org/2000/svg" xmlns:xlink="http://www.w3.org/1999/xlink" version="1.1" id="Layer_1" x="0px" y="0px" viewBox="0 0 2500 2500" style="enable-background:new 0 0 2500 2500;" xml:space="preserve">
<style type="text/css">
	.st0{fill:none;}
	.st1{fill-rule:evenodd;clip-rule:evenodd;fill:url(#SVGID_1_);}
	.st2{fill-rule:evenodd;clip-rule:evenodd;fill:url(#SVGID_00000005263880615918813190000000425366334832596145_);}
	.st3{fill-rule:evenodd;clip-rule:evenodd;fill:url(#SVGID_00000018229485509868571200000004283545261838099613_);}
	.st4{fill:url(#SVGID_00000049206896096912847980000016226672053817733019_);}
</style>
<g id="Layer_x0020_1">
	<rect y="0" class="st0" width="2500" height="2500"></rect>
	<g id="_1930557523136">
		
			<linearGradient id="SVGID_1_" gradientUnits="userSpaceOnUse" x1="951.8284" y1="1669.4337" x2="951.8284" y2="1670.4337" gradientTransform="matrix(1417.42 0 0 -1522.3328 -1348285.625 2543933.75)">
			<stop offset="0" style="stop-color:#E9AF21"></stop>
			<stop offset="1" style="stop-color:#F8C42F"></stop>
		</linearGradient>
		<path class="st1" d="M1563.7,2343.1l-235.5,136c-50.1,28.9-109.5,27-156.3,0.1l-0.1,0.2L698.3,2206c-2.9-1.7-5.7-3.4-8.4-5.2    l-465.4-268.7c-50-29-78-81.5-77.9-135.5h-0.3l0-546.8c0-3.2,0.1-6.4,0.3-9.5v-82l312.8-180.6v262.6c0.2,3.3,0.3,6.6,0.3,9.9    l0,456.4L1563.7,2343.1L1563.7,2343.1z"></path>
		
			<linearGradient id="SVGID_00000175284152585484608650000001153881761620895164_" gradientUnits="userSpaceOnUse" x1="951.4916" y1="1669.3447" x2="951.4916" y2="1670.3447" gradientTransform="matrix(944.08 0 0 -1820.1501 -896402.5 3040709.5)">
			<stop offset="0" style="stop-color:#E9AF21"></stop>
			<stop offset="1" style="stop-color:#F8C42F"></stop>
		</linearGradient>
		<path style="fill-rule:evenodd;clip-rule:evenodd;fill:url(#SVGID_00000175284152585484608650000001153881761620895164_);" d="    M2038.7,431.2L2275.5,568c50,29,78,81.5,77.9,135.5h0.3l0,546.8c0,3.2-0.1,6.3-0.3,9.5v536.7c0.1,58-31.4,108.7-78.2,135.8l0,0    l-552.7,319.1l-312.9-180.7l631-364.3L2038.7,431.2L2038.7,431.2z"></path>
		
			<linearGradient id="SVGID_00000169531190687009541300000005993062926075154851_" gradientUnits="userSpaceOnUse" x1="951.9507" y1="1669.7393" x2="951.9507" y2="1670.7393" gradientTransform="matrix(1733.2303 0 0 -974.8393 -1648936.75 1628702.25)">
			<stop offset="0" style="stop-color:#E9AF21"></stop>
			<stop offset="1" style="stop-color:#F8C42F"></stop>
		</linearGradient>
		<path style="fill-rule:evenodd;clip-rule:evenodd;fill:url(#SVGID_00000169531190687009541300000005993062926075154851_);" d="    M1328.2,20.7L1801.7,294c2.9,1.7,5.7,3.4,8.4,5.2l69.7,40.2v361.2l-226.1-130.5c-2.8-1.4-5.6-2.9-8.4-4.5l-395.6-228.4    L146.6,974.8V703.6c-0.1-58,31.4-108.7,78.2-135.8l0,0l947-546.8c50.1-28.9,109.5-27,156.3-0.1L1328.2,20.7L1328.2,20.7z"></path>
		
			<linearGradient id="SVGID_00000158020726899992502670000012885125786784852127_" gradientUnits="userSpaceOnUse" x1="1248.205" y1="603.5699" x2="1248.205" y2="1852.5398" gradientTransform="matrix(1 0 0 -1 0 2497.8899)">
			<stop offset="0" style="stop-color:#E9AF21"></stop>
			<stop offset="1" style="stop-color:#F8C42F"></stop>
		</linearGradient>
		<path style="fill:url(#SVGID_00000158020726899992502670000012885125786784852127_);" d="M1248.2,1894.3    c-127.2,0-242.4-51.6-325.8-135s-135-198.6-135-325.8c0-209.5,1-418.3,0.2-630.4l273.4-157.8l-2.9,365.5l-0.1,2.9    c58-26.3,122.4-41,190.2-41c127.2,0,242.4,51.6,325.8,135s135,198.6,135,325.8c0,127.2-51.6,242.4-135,325.8    C1490.6,1842.7,1375.4,1894.3,1248.2,1894.3z M1113.3,1568.4c34.5,34.5,82.2,55.9,134.9,55.9c52.7,0,100.4-21.3,134.9-55.9    c34.5-34.5,55.9-82.2,55.9-134.9c0-52.7-21.4-100.4-55.9-134.9c-34.5-34.5-82.2-55.9-134.9-55.9c-52.7,0-100.4,21.4-134.9,55.9    c-34.5,34.5-55.9,82.2-55.9,134.9C1057.4,1486.2,1078.7,1533.9,1113.3,1568.4z"></path>
	</g>
</g>
</svg>
